<svg width="205" height="205" viewBox="0 0 205 205" fill="none" xmlns="http://www.w3.org/2000/svg">
<circle cx="102.5" cy="102.5" r="102.5" fill="#EE3333"/>
<circle cx="102.5" cy="102.5" r="90.5" stroke="white" stroke-width="2" stroke-dasharray="20 20"/>
<path d="M43.1859 68.792C46.1859 68.792 48.5139 69.536 50.1699 71.024C51.8499 72.512 52.6899 74.576 52.6899 77.216C52.6899 78.248 52.5339 79.28 52.2219 80.312C51.9099 81.344 51.3939 82.28 50.6739 83.12C49.9779 83.96 49.0659 84.632 47.9379 85.136C46.8099 85.64 45.4179 85.892 43.7619 85.892H39.9819V95H35.7699V68.792H43.1859ZM43.7619 81.86C44.9859 81.86 45.9459 81.596 46.6419 81.068C47.3379 80.54 47.8179 79.916 48.0819 79.196C48.3699 78.476 48.5139 77.84 48.5139 77.288C48.5139 76.736 48.3819 76.112 48.1179 75.416C47.8779 74.696 47.4219 74.084 46.7499 73.58C46.0779 73.076 45.1179 72.824 43.8699 72.824H39.9819V81.86H43.7619ZM65.1577 68.792C67.1017 68.792 68.7937 69.128 70.2337 69.8C71.6977 70.448 72.8257 71.408 73.6177 72.68C74.4337 73.928 74.8417 75.44 74.8417 77.216C74.8417 78.704 74.5177 80.156 73.8697 81.572C73.2217 82.988 72.1297 84.092 70.5937 84.884L76.9657 95H72.1057L66.2017 85.892C66.0577 85.892 65.9137 85.892 65.7697 85.892H61.9897V95H57.7777V68.792H65.1577ZM65.7337 81.86C66.9817 81.86 67.9537 81.62 68.6497 81.14C69.3457 80.636 69.8257 80.036 70.0897 79.34C70.3777 78.62 70.5217 77.96 70.5217 77.36C70.5217 76.784 70.3897 76.148 70.1257 75.452C69.8617 74.732 69.3937 74.12 68.7217 73.616C68.0497 73.088 67.1017 72.824 65.8777 72.824H61.9897V81.86H65.7337ZM79.5718 81.932C79.5718 80.108 79.9198 78.392 80.6158 76.784C81.3118 75.152 82.2718 73.724 83.4958 72.5C84.7198 71.252 86.1358 70.28 87.7438 69.584C89.3758 68.864 91.1158 68.504 92.9638 68.504C94.7878 68.504 96.5038 68.864 98.1118 69.584C99.7438 70.28 101.172 71.252 102.396 72.5C103.644 73.724 104.616 75.152 105.312 76.784C106.032 78.392 106.392 80.108 106.392 81.932C106.392 83.78 106.032 85.508 105.312 87.116C104.616 88.724 103.644 90.14 102.396 91.364C101.172 92.588 99.7438 93.548 98.1118 94.244C96.5038 94.94 94.7878 95.288 92.9638 95.288C91.1158 95.288 89.3758 94.952 87.7438 94.28C86.1358 93.584 84.7198 92.636 83.4958 91.436C82.2718 90.212 81.3118 88.796 80.6158 87.188C79.9198 85.556 79.5718 83.804 79.5718 81.932ZM83.8918 81.932C83.8918 83.66 84.2998 85.232 85.1158 86.648C85.9318 88.04 87.0238 89.156 88.3918 89.996C89.7838 90.836 91.3438 91.256 93.0718 91.256C94.7518 91.256 96.2638 90.836 97.6078 89.996C98.9758 89.156 100.056 88.04 100.848 86.648C101.664 85.232 102.072 83.66 102.072 81.932C102.072 80.18 101.664 78.596 100.848 77.18C100.032 75.764 98.9398 74.636 97.5718 73.796C96.2038 72.956 94.6678 72.536 92.9638 72.536C91.2598 72.536 89.7238 72.956 88.3558 73.796C86.9878 74.636 85.8958 75.776 85.0798 77.216C84.2878 78.632 83.8918 80.204 83.8918 81.932ZM111.989 95V67.856H112.025L125.093 86.396L138.377 67.856H138.449V95H134.273V79.844L125.093 92.876H125.021L116.057 80.456V95H111.989ZM144.013 81.932C144.013 80.108 144.361 78.392 145.057 76.784C145.753 75.152 146.713 73.724 147.937 72.5C149.161 71.252 150.577 70.28 152.185 69.584C153.817 68.864 155.557 68.504 157.405 68.504C159.229 68.504 160.945 68.864 162.553 69.584C164.185 70.28 165.613 71.252 166.837 72.5C168.085 73.724 169.057 75.152 169.753 76.784C170.473 78.392 170.833 80.108 170.833 81.932C170.833 83.78 170.473 85.508 169.753 87.116C169.057 88.724 168.085 90.14 166.837 91.364C165.613 92.588 164.185 93.548 162.553 94.244C160.945 94.94 159.229 95.288 157.405 95.288C155.557 95.288 153.817 94.952 152.185 94.28C150.577 93.584 149.161 92.636 147.937 91.436C146.713 90.212 145.753 88.796 145.057 87.188C144.361 85.556 144.013 83.804 144.013 81.932ZM148.333 81.932C148.333 83.66 148.741 85.232 149.557 86.648C150.373 88.04 151.465 89.156 152.833 89.996C154.225 90.836 155.785 91.256 157.513 91.256C159.193 91.256 160.705 90.836 162.049 89.996C163.417 89.156 164.497 88.04 165.289 86.648C166.105 85.232 166.513 83.66 166.513 81.932C166.513 80.18 166.105 78.596 165.289 77.18C164.473 75.764 163.381 74.636 162.013 73.796C160.645 72.956 159.109 72.536 157.405 72.536C155.701 72.536 154.165 72.956 152.797 73.796C151.429 74.636 150.337 75.776 149.521 77.216C148.729 78.632 148.333 80.204 148.333 81.932Z" fill="white"/>
<path d="M68.6441 114.668C68.7641 112.268 69.6041 110.42 71.1641 109.124C72.7481 107.804 74.8241 107.144 77.3921 107.144C79.1441 107.144 80.6441 107.456 81.8921 108.08C83.1401 108.68 84.0761 109.508 84.7001 110.564C85.3481 111.596 85.6721 112.772 85.6721 114.092C85.6721 115.604 85.2761 116.888 84.4841 117.944C83.7161 118.976 82.7921 119.672 81.7121 120.032V120.176C83.1041 120.608 84.1841 121.376 84.9521 122.48C85.7441 123.584 86.1401 125 86.1401 126.728C86.1401 128.168 85.8041 129.452 85.1321 130.58C84.4841 131.708 83.5121 132.596 82.2161 133.244C80.9441 133.868 79.4081 134.18 77.6081 134.18C74.8961 134.18 72.6881 133.496 70.9841 132.128C69.2801 130.76 68.3801 128.744 68.2841 126.08H73.1801C73.2281 127.256 73.6241 128.204 74.3681 128.924C75.1361 129.62 76.1801 129.968 77.5001 129.968C78.7241 129.968 79.6601 129.632 80.3081 128.96C80.9801 128.264 81.3161 127.376 81.3161 126.296C81.3161 124.856 80.8601 123.824 79.9481 123.2C79.0361 122.576 77.6201 122.264 75.7001 122.264H74.6561V118.124H75.7001C79.1081 118.124 80.8121 116.984 80.8121 114.704C80.8121 113.672 80.5001 112.868 79.8761 112.292C79.2761 111.716 78.4001 111.428 77.2481 111.428C76.1201 111.428 75.2441 111.74 74.6201 112.364C74.0201 112.964 73.6721 113.732 73.5761 114.668H68.6441ZM90.1228 120.536C90.1228 116.384 90.8668 113.132 92.3548 110.78C93.8668 108.428 96.3628 107.252 99.8428 107.252C103.323 107.252 105.807 108.428 107.295 110.78C108.807 113.132 109.563 116.384 109.563 120.536C109.563 124.712 108.807 127.988 107.295 130.364C105.807 132.74 103.323 133.928 99.8428 133.928C96.3628 133.928 93.8668 132.74 92.3548 130.364C90.8668 127.988 90.1228 124.712 90.1228 120.536ZM104.595 120.536C104.595 118.76 104.475 117.272 104.235 116.072C104.019 114.848 103.563 113.852 102.867 113.084C102.195 112.316 101.187 111.932 99.8428 111.932C98.4988 111.932 97.4788 112.316 96.7828 113.084C96.1108 113.852 95.6548 114.848 95.4148 116.072C95.1988 117.272 95.0908 118.76 95.0908 120.536C95.0908 122.36 95.1988 123.896 95.4148 125.144C95.6308 126.368 96.0868 127.364 96.7828 128.132C97.4788 128.876 98.4988 129.248 99.8428 129.248C101.187 129.248 102.207 128.876 102.903 128.132C103.599 127.364 104.055 126.368 104.271 125.144C104.487 123.896 104.595 122.36 104.595 120.536ZM112.82 114.2C112.82 112.376 113.348 110.948 114.404 109.916C115.484 108.884 116.864 108.368 118.544 108.368C120.224 108.368 121.592 108.884 122.648 109.916C123.728 110.948 124.268 112.376 124.268 114.2C124.268 116.048 123.728 117.488 122.648 118.52C121.592 119.552 120.224 120.068 118.544 120.068C116.864 120.068 115.484 119.552 114.404 118.52C113.348 117.488 112.82 116.048 112.82 114.2ZM135.932 108.8L121.784 134H116.888L131 108.8H135.932ZM118.508 111.392C117.188 111.392 116.528 112.328 116.528 114.2C116.528 116.096 117.188 117.044 118.508 117.044C119.156 117.044 119.66 116.816 120.02 116.36C120.38 115.88 120.56 115.16 120.56 114.2C120.56 112.328 119.876 111.392 118.508 111.392ZM128.624 128.564C128.624 126.716 129.152 125.288 130.208 124.28C131.288 123.248 132.668 122.732 134.348 122.732C136.028 122.732 137.384 123.248 138.416 124.28C139.472 125.288 140 126.716 140 128.564C140 130.412 139.472 131.852 138.416 132.884C137.384 133.916 136.028 134.432 134.348 134.432C132.644 134.432 131.264 133.916 130.208 132.884C129.152 131.852 128.624 130.412 128.624 128.564ZM134.312 125.756C132.944 125.756 132.26 126.692 132.26 128.564C132.26 130.46 132.944 131.408 134.312 131.408C135.656 131.408 136.328 130.46 136.328 128.564C136.328 126.692 135.656 125.756 134.312 125.756Z" fill="white"/>
</svg>
